<svg id="file_type_barrel" xmlns="http://www.w3.org/2000/svg" xmlns:xlink="http://www.w3.org/1999/xlink" viewBox="0 0 32 32"><defs><radialGradient id="radial-gradient" cx="130.07" cy="-621.78" r="28.23" gradientTransform="matrix(1, 0, 0, -1, -106.25, -588)" gradientUnits="userSpaceOnUse"><stop offset="0" stop-color="#6877ec"/><stop offset="0.6" stop-color="#5362cf"/><stop offset="1" stop-color="#4352b9"/></radialGradient><radialGradient id="radial-gradient-2" cx="111.62" cy="-589.33" r="36.97" gradientTransform="matrix(1, 0, 0, -1, -106.25, -588)" gradientUnits="userSpaceOnUse"><stop offset="0" stop-color="#00d5ff"/><stop offset="0.38" stop-color="#00b8eb"/><stop offset="1" stop-color="#0080c5"/></radialGradient><linearGradient id="linear-gradient" x1="112.07" y1="-593.46" x2="122.1" y2="-615.53" gradientTransform="matrix(1, 0, 0, -1, -106.25, -588)" gradientUnits="userSpaceOnUse"><stop offset="0" stop-color="#294ca7"/><stop offset="0.48" stop-color="#96a7d4"/><stop offset="0.84" stop-color="#e1e6f3"/><stop offset="1" stop-color="#fff"/></linearGradient><linearGradient id="linear-gradient-2" x1="97.03" y1="-582.98" x2="130.7" y2="-622.42" gradientTransform="matrix(1, 0, 0, -1, -106.25, -588)" gradientUnits="userSpaceOnUse"><stop offset="0" stop-color="#6877ec"/><stop offset="0.29" stop-color="#97a1f2"/><stop offset="0.77" stop-color="#e2e4fb"/><stop offset="1" stop-color="#fff"/></linearGradient><linearGradient id="linear-gradient-3" x1="100.87" y1="-575.97" x2="130.66" y2="-611.46" gradientTransform="matrix(1, 0, 0, -1, -106.25, -588)" gradientUnits="userSpaceOnUse"><stop offset="0" stop-color="#8397cc"/><stop offset="0.15" stop-color="#97a8d4"/><stop offset="0.73" stop-color="#e2e6f3"/><stop offset="1" stop-color="#fff"/></linearGradient><radialGradient id="radial-gradient-3" cx="121.23" cy="-588.41" r="21.37" gradientTransform="matrix(1, 0, 0, -1, -106.25, -588)" gradientUnits="userSpaceOnUse"><stop offset="0" stop-color="#fff"/><stop offset="1"/></radialGradient></defs><g id="Layer_1" data-name="Layer 1"><path d="M10.44,29.87a28.2,28.2,0,0,0,14.45-7.75l-20-20v22.2Z" style="fill:url(#radial-gradient)"/><path d="M4.9,24.33A22.2,22.2,0,0,0,27.1,2.13H4.9Z" style="fill:url(#radial-gradient-2)"/><path d="M4.9,24.33h0l.85.85a23,23,0,0,0,15.46-6.74l-.61-.61A22.12,22.12,0,0,1,4.9,24.33Z" style="fill:url(#linear-gradient)"/><path d="M10.44,29.87a28.2,28.2,0,0,0,14.45-7.75l-20-20v22.2Z" style="fill:url(#linear-gradient-2)"/><path d="M24.89,22.12l-20-20L23.07,23.78C23.7,23.25,24.31,22.7,24.89,22.12Z" style="fill:url(#linear-gradient-3)"/><path d="M4.9,2.13l15.7,15.7c.14-.14.28-.28.41-.43Z" style="fill:url(#radial-gradient-3)"/></g></svg>