<svg id="vscode-icon-buf" xmlns="http://www.w3.org/2000/svg" viewBox="0 0 32 32"><g id="file_type_buf"><path d="M4.86,23.43H3V3H4.86Z" style="fill:#77e1ff"/><path d="M8.57,23.43H6.71V3H8.57Z" style="fill:#77e1ff"/><path d="M12.29,23.43H10.43V3h1.86Z" style="fill:#77e1ff"/><path d="M16,23.43H14.14V3H16Z" style="fill:#77e1ff"/><path d="M19.71,23.43H17.86V3h1.85Z" style="fill:#77e1ff"/><path d="M23.43,23.43H21.57V3h1.86Z" style="fill:#77e1ff"/><path d="M10.43,29H8.57V8.57h1.86Z" style="fill:#161ede"/><path d="M14.14,29H12.29V8.57h1.85Z" style="fill:#161ede"/><path d="M17.86,29H16V8.57h1.86Z" style="fill:#161ede"/><path d="M21.57,29H19.71V8.57h1.86Z" style="fill:#161ede"/><path d="M25.29,29H23.43V8.57h1.86Z" style="fill:#161ede"/><path d="M29,29H27.14V8.57H29Z" style="fill:#161ede"/></g></svg>