<svg id="file_type_barrel" xmlns="http://www.w3.org/2000/svg" viewBox="0 0 32 32"><g id="icon"><path d="M19.65,6.26h-7.3V2.91A.91.91,0,0,1,13.26,2h5.48a.91.91,0,0,1,.91.91V6.26Z" style="fill:#665247"/><rect x="6.87" y="5.65" width="18.26" height="23.13" style="fill:#e6563a"/><rect x="11.43" y="5.65" width="9.13" height="23.13" style="fill:#d9472b"/><path d="M26,22.09H6a.92.92,0,1,1,0-1.83H26a.92.92,0,1,1,0,1.83Z" style="fill:#ff9f19"/><path d="M20.57,20.26h-10v1.83H20.57a.92.92,0,0,0,0-1.83Z" style="fill:#f28618"/><path d="M26,14.17H6a.91.91,0,1,1,0-1.82H26a.91.91,0,1,1,0,1.82Z" style="fill:#ff9f19"/><path d="M20.57,12.35h-10v1.82H20.57a.91.91,0,0,0,0-1.82Z" style="fill:#f28618"/><path d="M26,6.26H6A.92.92,0,1,1,6,4.43H26a.92.92,0,1,1,0,1.83Z" style="fill:#ff9f19"/><path d="M20.57,4.43h-10V6.26H20.57a.92.92,0,0,0,0-1.83Z" style="fill:#f28618"/><path d="M26,30H6a.92.92,0,1,1,0-1.83H26A.92.92,0,1,1,26,30Z" style="fill:#ff9f19"/><path d="M20.57,28.17h-10V30H20.57a.92.92,0,0,0,0-1.83Z" style="fill:#f28618"/></g></svg>