<svg id="file_type_tina" xmlns="http://www.w3.org/2000/svg" viewBox="0 0 32 32"><path id="icon" d="M18.87,14.44c1.36-1.13,2-7.78,2.55-10.17a3,3,0,0,1,3-2.27,3,3,0,0,0-.38,1.92c.26.82,2,1.56,2,1.56l-.38,1a1.32,1.32,0,0,0-1.27.85c-.48.95.3,10.33.3,10.33s-2.84,5.61-2.84,8A9.93,9.93,0,0,0,23,30H21.45a21,21,0,0,1-2.78-4.12,6.81,6.81,0,0,1-.29-2.75,46.7,46.7,0,0,0-4.73,0,4.69,4.69,0,0,0-4,3.13A28,28,0,0,0,9.29,30H8.05c-.76-2.34-1.36-3.18-1-4.36.91-3.27.73-5.12.52-5.95S5.9,18.14,5.9,18.14c.7-1.41,1.41-2.09,4.45-2.16s7.16-.42,8.52-1.54Z" style="fill:#ec4815"/></svg>