<svg id="folder_type_tina" xmlns="http://www.w3.org/2000/svg" viewBox="0 0 32 32"><path id="folder" d="M27.5,5.5H18.2L16.1,9.7H4.4V26.5H29.6V5.5Zm0,4.2H19.3l1.1-2.1h7.1Z" style="fill:#7f210e"/><path id="icon" d="M23.67,19.52c1-.83,1.45-5.74,1.88-7.5a2.21,2.21,0,0,1,2.23-1.68,2.2,2.2,0,0,0-.27,1.42c.19.61,1.49,1.15,1.49,1.15l-.28.74a1,1,0,0,0-.94.62c-.35.7.23,7.62.23,7.62s-2.1,4.15-2.1,5.9A7.37,7.37,0,0,0,26.73,31H25.57a15.65,15.65,0,0,1-2.05-3,4.91,4.91,0,0,1-.21-2s-1.85-.1-3.5,0a3.47,3.47,0,0,0-2.93,2.31A20.52,20.52,0,0,0,16.6,31h-.92c-.56-1.73-1-2.34-.76-3.21a9,9,0,0,0,.38-4.4c-.15-.61-1.2-1.14-1.2-1.14.51-1,1-1.54,3.28-1.6s5.28-.3,6.29-1.13Z" style="fill:#ec4815"/></svg>