<svg id="vscode-icon-buf" xmlns="http://www.w3.org/2000/svg" viewBox="0 0 32 32"><g id="folder_type_buf"><g id="folder"><path id="folder-2" data-name="folder" d="M18.73,3.5l-2,4H4.5v17h25V3.5Zm8.77,4H19.75l1-2H27.5Z" style="fill:#6679ff"/></g><g id="icon"><path d="M14.31,26.38h-1.2V13.11h1.2Z" style="fill:#77e1ff"/><path d="M16.73,26.38H15.52V13.11h1.21Z" style="fill:#77e1ff"/><path d="M19.14,26.38H17.93V13.11h1.21Z" style="fill:#77e1ff"/><path d="M21.55,26.38h-1.2V13.11h1.2Z" style="fill:#77e1ff"/><path d="M24,26.38H22.76V13.11H24Z" style="fill:#77e1ff"/><path d="M26.38,26.38H25.17V13.11h1.21Z" style="fill:#77e1ff"/><path d="M17.93,30h-1.2V16.73h1.2Z" style="fill:#161ede"/><path d="M20.35,30H19.14V16.73h1.21Z" style="fill:#161ede"/><path d="M22.76,30H21.55V16.73h1.21Z" style="fill:#161ede"/><path d="M25.17,30H24V16.73h1.2Z" style="fill:#161ede"/><path d="M27.59,30H26.38V16.73h1.21Z" style="fill:#161ede"/><path d="M30,30H28.79V16.73H30Z" style="fill:#161ede"/></g></g></svg>