<svg id="vscode-icon-autohotkey" xmlns="http://www.w3.org/2000/svg" xmlns:xlink="http://www.w3.org/1999/xlink" viewBox="0 0 32 32"><defs><linearGradient id="linear-gradient" x1="59.97" y1="-192.34" x2="59.97" y2="-208.68" gradientTransform="matrix(1, 0, 0, -1, -38.6, -179.64)" gradientUnits="userSpaceOnUse"><stop offset="0" stop-color="#d8d8d8"/><stop offset="1" stop-color="#a3a3a3"/></linearGradient><linearGradient id="linear-gradient-2" x1="209.18" y1="-305.3" x2="223.28" y2="-305.3" gradientTransform="matrix(0.83, 0, 0, -0.84, -158.46, -234.9)" gradientUnits="userSpaceOnUse"><stop offset="0" stop-color="#d7d7d7"/><stop offset="0.5" stop-color="#e7e7e7"/><stop offset="1" stop-color="#d7d7d7"/></linearGradient></defs><g id="folder_type_autohotkey"><path id="folder" d="M18.73,3.5l-2,4H4.5v17h25V3.5Zm8.77,4H19.75l1-2H27.5Z" style="fill:#429942"/></g><g id="file_type_autohotkey"><rect x="12.74" y="12.75" width="17.26" height="16.24" rx="1.9" style="fill:url(#linear-gradient)"/><path d="M28.06,29H14.68a1.94,1.94,0,0,1-1.94-1.94V14.69a1.94,1.94,0,0,1,1.94-1.94H28.06A1.94,1.94,0,0,1,30,14.69V27.06A1.94,1.94,0,0,1,28.06,29ZM14.68,12.84a1.85,1.85,0,0,0-1.85,1.85h0V27.06a1.85,1.85,0,0,0,1.85,1.85H28.06a1.85,1.85,0,0,0,1.85-1.85V14.69a1.85,1.85,0,0,0-1.85-1.85Z" style="fill:#8d8d8d"/><rect x="14.17" y="13.87" width="14.28" height="13.52" rx="1.58" style="fill:url(#linear-gradient-2)"/><path d="M26.86,27.43H15.75a1.62,1.62,0,0,1-1.62-1.62V15.46a1.62,1.62,0,0,1,1.62-1.62H26.86a1.61,1.61,0,0,1,1.62,1.62V25.81A1.61,1.61,0,0,1,26.86,27.43ZM15.75,13.91a1.55,1.55,0,0,0-1.55,1.55V25.81a1.55,1.55,0,0,0,1.55,1.55H26.86a1.54,1.54,0,0,0,1.55-1.55V15.46a1.54,1.54,0,0,0-1.55-1.55Z" style="fill:#f8f8f8"/><path d="M15.3,25.74,16.74,22h.54l1.54,3.76h-.57l-.44-1.13H16.24l-.42,1.13Zm1.08-1.54h1.28l-.4-1a7.8,7.8,0,0,1-.26-.78,4.44,4.44,0,0,1-.21.71Z"/><path d="M19.9,25.74V22h.49v1.55h2V22h.49v3.76h-.49V24h-2v1.77Z"/><path d="M24.13,25.74V22h.5v1.87L26.5,22h.67l-1.58,1.53,1.65,2.23h-.66l-1.34-1.9-.61.6v1.3Z"/></g></svg>