<svg id="folder_type_tina_opened" xmlns="http://www.w3.org/2000/svg" viewBox="0 0 32 32"><g id="folder"><path d="M27.4,5.5H18.2L16.1,9.7H4.3V26.5H29.5V5.5Zm0,18.7H6.6V11.8H27.4Zm0-14.5H19.2l1-2.1h7.1V9.7Z" style="fill:#a52716"/><polygon points="25.7 13.7 0.5 13.7 4.3 26.5 29.5 26.5 25.7 13.7" style="fill:#a52716"/></g><path id="icon" d="M23.67,19.52c1-.83,1.45-5.74,1.88-7.5a2.21,2.21,0,0,1,2.23-1.68,2.2,2.2,0,0,0-.27,1.42c.19.61,1.49,1.15,1.49,1.15l-.28.74a1,1,0,0,0-.94.62c-.35.7.23,7.62.23,7.62s-2.1,4.15-2.1,5.9A7.37,7.37,0,0,0,26.73,31H25.57a15.65,15.65,0,0,1-2.05-3,4.91,4.91,0,0,1-.21-2s-1.85-.1-3.5,0a3.47,3.47,0,0,0-2.93,2.31A20.52,20.52,0,0,0,16.6,31h-.92c-.56-1.73-1-2.34-.76-3.21a9,9,0,0,0,.38-4.4c-.15-.61-1.2-1.14-1.2-1.14.51-1,1-1.54,3.28-1.6s5.28-.3,6.29-1.13Z" style="fill:#ec4815"/></svg>