<svg xmlns="http://www.w3.org/2000/svg" viewBox="0 0 115.7 26.4"><g id="Layer_2" data-name="Layer 2"><g id="Layer_1-2" data-name="Layer 1"><path d="M.23,19.4V17.33c0-1.28.69-1.68,1.89-1.3a27.08,27.08,0,0,0,6.1,1.23c0-.27,0-.41,0-.69C4.58,16.14,0,14.5,0,10.19,0,6.44,3.49,4.52,7,4.35A11.2,11.2,0,0,1,11.3,5a2,2,0,0,1,1.22,2.07V9.12c0,1.39-.75,1.86-1.95,1.45a22,22,0,0,0-5-1c0,.28,0,.41-.08.69,4,.37,7.76,2.66,7.74,7,0,3.74-3.35,5.89-6.87,5.54a15.25,15.25,0,0,1-5-1.31A2.16,2.16,0,0,1,.23,19.4"/><path d="M29.86,13.61C29.86,17.14,29,24,24,23.75c-2.22-.11-3.88-1.92-4.27-4.5l-.6.11a9,9,0,0,0,.8,2.79,5.22,5.22,0,0,1,.68,2.45c0,1.22-.6,1.86-1.7,1.79l-2.49-.16a1.74,1.74,0,0,1-1.7-2V6.09c0-1.22.6-1.91,1.7-2l2-.1c1.27-.06,1.69.67,1.27,1.9a13.85,13.85,0,0,0-.51,2.13l.59.12c.44-2.24,1.88-4.6,4.39-4.73,5-.24,5.72,6.74,5.72,10.16m-9.28,0c0,2.94.53,4.27,1.69,4.29S24,16.58,24,13.61s-.54-4.31-1.7-4.29-1.69,1.35-1.69,4.28"/><path d="M38.77,3c5.79-.14,7.48,5.91,7.48,10.64S44.56,24.4,38.77,24.25,31.3,18.37,31.3,13.61,33.13,3.12,38.77,3m0,15.51c1.14,0,1.59-1.4,1.59-4.88s-.45-4.88-1.59-4.87-1.58,1.42-1.58,4.87.45,4.86,1.58,4.88"/><path d="M55.12,2.76c5.79,0,7.47,6.11,7.47,10.86s-1.68,10.87-7.47,10.85-7.48-6.1-7.48-10.85,1.7-10.84,7.48-10.86m0,15.83c1.13,0,1.58-1.43,1.58-5s-.45-5-1.58-5-1.59,1.43-1.59,5,.45,5,1.59,5"/><path d="M64.09,22V5.23c0-1.36.6-2.09,1.7-2.08l2.07,0c1.28,0,1.62.71,1.22,2a11.83,11.83,0,0,0-.45,2.18l.59.15c.46-2.43,2.19-4.68,4.84-4.58,4.4.17,5.29,5.5,5.21,9V21.8c0,1.33-.59,2.06-1.69,2.09l-2.5.06c-1.1,0-1.7-.7-1.7-2v-10c0-1.8-.62-2.84-1.69-2.85s-1.7,1-1.7,2.84V22c0,1.36-.6,2.1-1.7,2.11l-2.5,0c-1.1,0-1.7-.72-1.7-2.08"/><path d="M89.92,5.79l-3.54.14v.73l3.48.09c1.1,0,1.7.73,1.7,2v1.51c0,1.27-.62,2-1.73,2l-1.75-.07v9.33c0,1.29-.6,2-1.7,2.05l-2.49.08c-1.11,0-1.7-.66-1.7-2V12c-1,.16-1.53-.52-1.53-1.81v-2c0-1,.48-1.59,1.33-1.57h.2C81.94,2.41,84.4-.27,88.56,0a11.44,11.44,0,0,1,1.5.18c1,.19,1.5,1,1.5,2.21V3.85c0,1.24-.57,1.91-1.64,1.94"/><path d="M108.21,6.41V20.78a1.67,1.67,0,0,1-1.69,1.89l-2.07.12c-1.27.08-1.61-.53-1.21-1.69a9.85,9.85,0,0,0,.45-2l-.59-.1a5.39,5.39,0,0,1-4.84,4.4c-4.23.25-5.35-5-5.2-8.21V5.8c0-1.27.59-1.93,1.7-1.88L97.24,4c1.11,0,1.7.74,1.7,2v9.17c0,1.65.62,2.58,1.7,2.56s1.69-1,1.69-2.59v-9c0-1.22.6-1.84,1.7-1.78l2.49.14a1.68,1.68,0,0,1,1.69,1.9"/><path d="M111.52,1.89l2.48.22A1.69,1.69,0,0,1,115.7,4V20.38a1.65,1.65,0,0,1-1.7,1.81l-2.48.17c-1.1.07-1.7-.51-1.7-1.67V3.53c0-1.16.6-1.73,1.7-1.64"/></g></g></svg>